<mxfile host="app.diagrams.net" modified="2023-01-16T02:26:53.873Z" agent="5.0 (Windows NT 10.0; Win64; x64) AppleWebKit/537.36 (KHTML, like Gecko) Chrome/108.0.0.0 Safari/537.36" etag="b5BHNhkX97VoU9yw1KYH" version="20.8.5" type="github">
  <diagram name="Page-1" id="822b0af5-4adb-64df-f703-e8dfc1f81529">
    <mxGraphModel dx="5197" dy="2183" grid="1" gridSize="10" guides="1" tooltips="1" connect="1" arrows="1" fold="1" page="1" pageScale="1" pageWidth="1100" pageHeight="850" background="none" math="0" shadow="0">
      <root>
        <mxCell id="0" />
        <mxCell id="1" parent="0" />
        <mxCell id="I3DkCNayP3qVsuITPL4q-41" value="" style="shape=ext;double=1;rounded=1;whiteSpace=wrap;html=1;fontSize=30;fontColor=#0d0c0c;" parent="1" vertex="1">
          <mxGeometry x="-200" y="309.66" width="1900" height="710.34" as="geometry" />
        </mxCell>
        <mxCell id="I3DkCNayP3qVsuITPL4q-17" value="" style="shape=ext;double=1;rounded=1;whiteSpace=wrap;html=1;fontSize=30;fontColor=#0d0c0c;" parent="1" vertex="1">
          <mxGeometry x="830" y="510" width="310" height="340" as="geometry" />
        </mxCell>
        <mxCell id="I3DkCNayP3qVsuITPL4q-9" value="" style="shape=ext;double=1;rounded=1;whiteSpace=wrap;html=1;fontSize=30;fontColor=#0d0c0c;" parent="1" vertex="1">
          <mxGeometry x="360" y="492.08" width="1270" height="430" as="geometry" />
        </mxCell>
        <mxCell id="7d933b09d9755ecc-23" style="rounded=0;html=1;labelBackgroundColor=none;startArrow=none;startFill=0;endArrow=block;endFill=1;strokeColor=#0000FF;strokeWidth=1;fontFamily=Verdana;fontSize=12" parent="1" edge="1">
          <mxGeometry relative="1" as="geometry">
            <mxPoint x="610.4585761435383" y="389.53946465110675" as="sourcePoint" />
            <mxPoint x="610" y="381" as="targetPoint" />
          </mxGeometry>
        </mxCell>
        <mxCell id="I3DkCNayP3qVsuITPL4q-10" value="" style="verticalLabelPosition=bottom;aspect=fixed;html=1;verticalAlign=top;strokeColor=none;shape=mxgraph.citrix.file_server;rounded=0;shadow=0;comic=0;fontFamily=Verdana;" parent="1" vertex="1">
          <mxGeometry x="425.82" y="606" width="178.35" height="243.66" as="geometry" />
        </mxCell>
        <mxCell id="I3DkCNayP3qVsuITPL4q-22" value="" style="edgeStyle=orthogonalEdgeStyle;rounded=0;orthogonalLoop=1;jettySize=auto;html=1;fontSize=24;fontColor=#007FFF;endArrow=none;" parent="1" target="I3DkCNayP3qVsuITPL4q-21" edge="1">
          <mxGeometry relative="1" as="geometry">
            <mxPoint x="985" y="580" as="sourcePoint" />
            <mxPoint x="985" y="510" as="targetPoint" />
          </mxGeometry>
        </mxCell>
        <mxCell id="I3DkCNayP3qVsuITPL4q-85" value="" style="edgeStyle=orthogonalEdgeStyle;rounded=0;orthogonalLoop=1;jettySize=auto;html=1;fontSize=48;fontColor=#007FFF;" parent="1" source="I3DkCNayP3qVsuITPL4q-21" target="I3DkCNayP3qVsuITPL4q-29" edge="1">
          <mxGeometry relative="1" as="geometry" />
        </mxCell>
        <mxCell id="I3DkCNayP3qVsuITPL4q-86" value="" style="edgeStyle=orthogonalEdgeStyle;rounded=0;orthogonalLoop=1;jettySize=auto;html=1;fontSize=48;fontColor=#007FFF;" parent="1" source="I3DkCNayP3qVsuITPL4q-21" target="I3DkCNayP3qVsuITPL4q-29" edge="1">
          <mxGeometry relative="1" as="geometry" />
        </mxCell>
        <mxCell id="I3DkCNayP3qVsuITPL4q-87" value="" style="edgeStyle=orthogonalEdgeStyle;rounded=0;orthogonalLoop=1;jettySize=auto;html=1;fontSize=48;fontColor=#007FFF;" parent="1" source="I3DkCNayP3qVsuITPL4q-21" target="I3DkCNayP3qVsuITPL4q-29" edge="1">
          <mxGeometry relative="1" as="geometry" />
        </mxCell>
        <mxCell id="a6yZp-BWBQQfalIG9g2c-7" value="" style="edgeStyle=orthogonalEdgeStyle;rounded=0;orthogonalLoop=1;jettySize=auto;html=1;" edge="1" parent="1" source="I3DkCNayP3qVsuITPL4q-21" target="I3DkCNayP3qVsuITPL4q-29">
          <mxGeometry relative="1" as="geometry" />
        </mxCell>
        <mxCell id="I3DkCNayP3qVsuITPL4q-21" value="&lt;b style=&quot;border-color: var(--border-color); color: rgb(13, 12, 12); font-family: Verdana; font-size: 30px;&quot;&gt;Elasticsearch&lt;/b&gt;" style="text;strokeColor=none;align=center;fillColor=none;html=1;verticalAlign=middle;whiteSpace=wrap;rounded=0;fontSize=24;fontColor=#007FFF;" parent="1" vertex="1">
          <mxGeometry x="955" y="540" width="60" height="30" as="geometry" />
        </mxCell>
        <mxCell id="I3DkCNayP3qVsuITPL4q-23" value="&lt;font face=&quot;Verdana&quot; color=&quot;#0d0c0c&quot;&gt;&lt;span style=&quot;font-size: 30px;&quot;&gt;&lt;b&gt;Logstash&lt;/b&gt;&lt;/span&gt;&lt;/font&gt;" style="text;strokeColor=none;align=center;fillColor=none;html=1;verticalAlign=middle;whiteSpace=wrap;rounded=0;fontSize=24;fontColor=#007FFF;" parent="1" vertex="1">
          <mxGeometry x="470" y="550" width="60" height="30" as="geometry" />
        </mxCell>
        <mxCell id="I3DkCNayP3qVsuITPL4q-24" value="&lt;font face=&quot;Verdana&quot; color=&quot;#0d0c0c&quot;&gt;&lt;span style=&quot;font-size: 30px;&quot;&gt;&lt;b&gt;Beats&lt;/b&gt;&lt;/span&gt;&lt;/font&gt;" style="text;strokeColor=none;align=center;fillColor=none;html=1;verticalAlign=middle;whiteSpace=wrap;rounded=0;fontSize=24;fontColor=#007FFF;" parent="1" vertex="1">
          <mxGeometry x="470" y="520" width="60" height="30" as="geometry" />
        </mxCell>
        <mxCell id="I3DkCNayP3qVsuITPL4q-27" value="&lt;b style=&quot;border-color: var(--border-color); color: rgb(0, 0, 0); font-family: Verdana;&quot;&gt;&lt;font style=&quot;border-color: var(--border-color);&quot; color=&quot;#007fff&quot;&gt;- Logs&lt;br style=&quot;border-color: var(--border-color);&quot;&gt;- Merics&lt;br style=&quot;border-color: var(--border-color);&quot;&gt;&lt;div style=&quot;border-color: var(--border-color);&quot;&gt;&lt;b style=&quot;border-color: var(--border-color); background-color: initial;&quot;&gt;- Packets&lt;/b&gt;&lt;/div&gt;&lt;/font&gt;&lt;/b&gt;" style="text;strokeColor=none;align=left;fillColor=none;html=1;verticalAlign=middle;whiteSpace=wrap;rounded=0;fontSize=24;fontColor=#007FFF;" parent="1" vertex="1">
          <mxGeometry x="370" y="849.6600000000001" width="180" height="30" as="geometry" />
        </mxCell>
        <mxCell id="I3DkCNayP3qVsuITPL4q-28" value="&lt;b style=&quot;border-color: var(--border-color); color: rgb(0, 0, 0); font-family: Verdana;&quot;&gt;&lt;font style=&quot;border-color: var(--border-color);&quot; color=&quot;#007fff&quot;&gt;- Base&lt;br&gt;&lt;/font&gt;&lt;/b&gt;" style="text;strokeColor=none;align=left;fillColor=none;html=1;verticalAlign=middle;whiteSpace=wrap;rounded=0;fontSize=24;fontColor=#007FFF;" parent="1" vertex="1">
          <mxGeometry x="835" y="790" width="180" height="30" as="geometry" />
        </mxCell>
        <mxCell id="I3DkCNayP3qVsuITPL4q-29" value="" style="verticalLabelPosition=bottom;sketch=0;aspect=fixed;html=1;verticalAlign=top;strokeColor=none;align=center;outlineConnect=0;shape=mxgraph.citrix.database_server;fontSize=24;fontColor=#007FFF;" parent="1" vertex="1">
          <mxGeometry x="895" y="591.76" width="205.01" height="230.64" as="geometry" />
        </mxCell>
        <mxCell id="I3DkCNayP3qVsuITPL4q-31" value="" style="verticalLabelPosition=bottom;sketch=0;aspect=fixed;html=1;verticalAlign=top;strokeColor=none;align=center;outlineConnect=0;shape=mxgraph.citrix.command_center;fontSize=24;fontColor=#007FFF;" parent="1" vertex="1">
          <mxGeometry x="1330" y="570" width="198.5" height="252.4" as="geometry" />
        </mxCell>
        <mxCell id="I3DkCNayP3qVsuITPL4q-32" value="&lt;font face=&quot;Verdana&quot; color=&quot;#0d0c0c&quot;&gt;&lt;span style=&quot;font-size: 30px;&quot;&gt;&lt;b&gt;Kibana&lt;/b&gt;&lt;/span&gt;&lt;/font&gt;" style="text;strokeColor=none;align=center;fillColor=none;html=1;verticalAlign=middle;whiteSpace=wrap;rounded=0;fontSize=24;fontColor=#007FFF;" parent="1" vertex="1">
          <mxGeometry x="1380" y="520" width="60" height="30" as="geometry" />
        </mxCell>
        <mxCell id="I3DkCNayP3qVsuITPL4q-36" value="" style="shape=ext;double=1;rounded=1;whiteSpace=wrap;html=1;fontSize=30;fontColor=#0d0c0c;" parent="1" vertex="1">
          <mxGeometry x="-120" y="537.08" width="310" height="340" as="geometry" />
        </mxCell>
        <mxCell id="I3DkCNayP3qVsuITPL4q-37" value="" style="verticalLabelPosition=bottom;sketch=0;aspect=fixed;html=1;verticalAlign=top;strokeColor=none;align=center;outlineConnect=0;shape=mxgraph.citrix.web_server;fontSize=24;fontColor=#007FFF;" parent="1" vertex="1">
          <mxGeometry x="-70" y="610.77" width="199" height="234.12" as="geometry" />
        </mxCell>
        <mxCell id="I3DkCNayP3qVsuITPL4q-40" value="&lt;font face=&quot;Verdana&quot; color=&quot;#0d0c0c&quot;&gt;&lt;span style=&quot;font-size: 30px;&quot;&gt;&lt;b&gt;AplicaciÃ³n&lt;/b&gt;&lt;/span&gt;&lt;b style=&quot;font-size: 30px;&quot;&gt;&amp;nbsp;Web&lt;/b&gt;&lt;/font&gt;" style="text;strokeColor=none;align=center;fillColor=none;html=1;verticalAlign=middle;whiteSpace=wrap;rounded=0;fontSize=24;fontColor=#007FFF;" parent="1" vertex="1">
          <mxGeometry x="5" y="570" width="60" height="30" as="geometry" />
        </mxCell>
        <mxCell id="I3DkCNayP3qVsuITPL4q-42" value="&lt;font size=&quot;1&quot; face=&quot;Verdana&quot; color=&quot;#0d0c0c&quot;&gt;&lt;b style=&quot;font-size: 48px;&quot;&gt;Sitio Principal&lt;/b&gt;&lt;/font&gt;" style="text;strokeColor=none;align=center;fillColor=none;html=1;verticalAlign=middle;whiteSpace=wrap;rounded=0;fontSize=24;fontColor=#007FFF;" parent="1" vertex="1">
          <mxGeometry x="540" y="370" width="420" height="30" as="geometry" />
        </mxCell>
        <mxCell id="I3DkCNayP3qVsuITPL4q-83" value="&lt;font size=&quot;1&quot; face=&quot;Verdana&quot; color=&quot;#0d0c0c&quot;&gt;&lt;b style=&quot;font-size: 40px;&quot;&gt;Stack ELK&lt;br&gt;&lt;/b&gt;&lt;/font&gt;" style="text;strokeColor=none;align=center;fillColor=none;html=1;verticalAlign=middle;whiteSpace=wrap;rounded=0;fontSize=24;fontColor=#007FFF;" parent="1" vertex="1">
          <mxGeometry x="740" y="440" width="420" height="30" as="geometry" />
        </mxCell>
        <mxCell id="I3DkCNayP3qVsuITPL4q-88" value="&lt;font face=&quot;Verdana&quot; color=&quot;#0d0c0c&quot;&gt;&lt;span style=&quot;font-size: 30px;&quot;&gt;&lt;b style=&quot;font-size: 24px;&quot;&gt;Port 22&lt;/b&gt;&lt;/span&gt;&lt;/font&gt;" style="text;strokeColor=none;align=center;fillColor=none;html=1;verticalAlign=middle;whiteSpace=wrap;rounded=0;fontSize=24;fontColor=#007FFF;" parent="1" vertex="1">
          <mxGeometry x="1180" y="620" width="60" height="30" as="geometry" />
        </mxCell>
        <mxCell id="a6yZp-BWBQQfalIG9g2c-3" value="" style="endArrow=classic;html=1;rounded=0;" edge="1" parent="1" source="I3DkCNayP3qVsuITPL4q-29" target="I3DkCNayP3qVsuITPL4q-31">
          <mxGeometry width="50" height="50" relative="1" as="geometry">
            <mxPoint x="1120" y="700" as="sourcePoint" />
            <mxPoint x="1120" y="630" as="targetPoint" />
          </mxGeometry>
        </mxCell>
        <mxCell id="a6yZp-BWBQQfalIG9g2c-5" value="" style="endArrow=classic;html=1;rounded=0;exitX=0.95;exitY=0.417;exitDx=0;exitDy=0;exitPerimeter=0;" edge="1" parent="1" source="I3DkCNayP3qVsuITPL4q-10">
          <mxGeometry width="50" height="50" relative="1" as="geometry">
            <mxPoint x="665.0100000000002" y="709.9768678270739" as="sourcePoint" />
            <mxPoint x="895" y="704.1811059769077" as="targetPoint" />
          </mxGeometry>
        </mxCell>
        <mxCell id="a6yZp-BWBQQfalIG9g2c-6" value="" style="endArrow=classic;html=1;rounded=0;" edge="1" parent="1" target="I3DkCNayP3qVsuITPL4q-9">
          <mxGeometry width="50" height="50" relative="1" as="geometry">
            <mxPoint x="190.00000000000006" y="698.1003621675787" as="sourcePoint" />
            <mxPoint x="480.83" y="680.0011059769078" as="targetPoint" />
          </mxGeometry>
        </mxCell>
        <mxCell id="a6yZp-BWBQQfalIG9g2c-9" value="&lt;b style=&quot;border-color: var(--border-color); color: rgb(0, 0, 0); font-family: Verdana;&quot;&gt;&lt;font style=&quot;border-color: var(--border-color);&quot; color=&quot;#007fff&quot;&gt;- Filebeat&lt;br&gt;&lt;/font&gt;&lt;/b&gt;" style="text;strokeColor=none;align=left;fillColor=none;html=1;verticalAlign=middle;whiteSpace=wrap;rounded=0;fontSize=24;fontColor=#007FFF;" vertex="1" parent="1">
          <mxGeometry x="-105" y="840" width="180" height="30" as="geometry" />
        </mxCell>
        <mxCell id="a6yZp-BWBQQfalIG9g2c-10" value="" style="shape=ext;double=1;rounded=1;whiteSpace=wrap;html=1;fontSize=30;fontColor=#0d0c0c;" vertex="1" parent="1">
          <mxGeometry x="-160" y="1070" width="1900" height="1420" as="geometry" />
        </mxCell>
        <mxCell id="a6yZp-BWBQQfalIG9g2c-11" value="" style="shape=ext;double=1;rounded=1;whiteSpace=wrap;html=1;fontSize=30;fontColor=#0d0c0c;" vertex="1" parent="1">
          <mxGeometry x="870" y="1270.3400000000001" width="310" height="340" as="geometry" />
        </mxCell>
        <mxCell id="a6yZp-BWBQQfalIG9g2c-12" value="" style="shape=ext;double=1;rounded=1;whiteSpace=wrap;html=1;fontSize=30;fontColor=#0d0c0c;" vertex="1" parent="1">
          <mxGeometry x="400" y="1252.42" width="1270" height="857.58" as="geometry" />
        </mxCell>
        <mxCell id="a6yZp-BWBQQfalIG9g2c-13" style="rounded=0;html=1;labelBackgroundColor=none;startArrow=none;startFill=0;endArrow=block;endFill=1;strokeColor=#0000FF;strokeWidth=1;fontFamily=Verdana;fontSize=12" edge="1" parent="1">
          <mxGeometry relative="1" as="geometry">
            <mxPoint x="650.4585761435383" y="1149.879464651107" as="sourcePoint" />
            <mxPoint x="650" y="1141.3400000000001" as="targetPoint" />
          </mxGeometry>
        </mxCell>
        <mxCell id="a6yZp-BWBQQfalIG9g2c-14" value="" style="verticalLabelPosition=bottom;aspect=fixed;html=1;verticalAlign=top;strokeColor=none;shape=mxgraph.citrix.file_server;rounded=0;shadow=0;comic=0;fontFamily=Verdana;" vertex="1" parent="1">
          <mxGeometry x="465.82" y="1366.3400000000001" width="178.35" height="243.66" as="geometry" />
        </mxCell>
        <mxCell id="a6yZp-BWBQQfalIG9g2c-15" value="" style="edgeStyle=orthogonalEdgeStyle;rounded=0;orthogonalLoop=1;jettySize=auto;html=1;fontSize=24;fontColor=#007FFF;endArrow=none;" edge="1" parent="1" target="a6yZp-BWBQQfalIG9g2c-20">
          <mxGeometry relative="1" as="geometry">
            <mxPoint x="1025" y="1340.3400000000001" as="sourcePoint" />
            <mxPoint x="1025" y="1270.3400000000001" as="targetPoint" />
          </mxGeometry>
        </mxCell>
        <mxCell id="a6yZp-BWBQQfalIG9g2c-16" value="" style="edgeStyle=orthogonalEdgeStyle;rounded=0;orthogonalLoop=1;jettySize=auto;html=1;fontSize=48;fontColor=#007FFF;" edge="1" parent="1" source="a6yZp-BWBQQfalIG9g2c-20" target="a6yZp-BWBQQfalIG9g2c-25">
          <mxGeometry relative="1" as="geometry" />
        </mxCell>
        <mxCell id="a6yZp-BWBQQfalIG9g2c-17" value="" style="edgeStyle=orthogonalEdgeStyle;rounded=0;orthogonalLoop=1;jettySize=auto;html=1;fontSize=48;fontColor=#007FFF;" edge="1" parent="1" source="a6yZp-BWBQQfalIG9g2c-20" target="a6yZp-BWBQQfalIG9g2c-25">
          <mxGeometry relative="1" as="geometry" />
        </mxCell>
        <mxCell id="a6yZp-BWBQQfalIG9g2c-18" value="" style="edgeStyle=orthogonalEdgeStyle;rounded=0;orthogonalLoop=1;jettySize=auto;html=1;fontSize=48;fontColor=#007FFF;" edge="1" parent="1" source="a6yZp-BWBQQfalIG9g2c-20" target="a6yZp-BWBQQfalIG9g2c-25">
          <mxGeometry relative="1" as="geometry" />
        </mxCell>
        <mxCell id="a6yZp-BWBQQfalIG9g2c-19" value="" style="edgeStyle=orthogonalEdgeStyle;rounded=0;orthogonalLoop=1;jettySize=auto;html=1;" edge="1" parent="1" source="a6yZp-BWBQQfalIG9g2c-20" target="a6yZp-BWBQQfalIG9g2c-25">
          <mxGeometry relative="1" as="geometry" />
        </mxCell>
        <mxCell id="a6yZp-BWBQQfalIG9g2c-20" value="&lt;b style=&quot;border-color: var(--border-color); color: rgb(13, 12, 12); font-family: Verdana; font-size: 30px;&quot;&gt;Elasticsearch&lt;/b&gt;" style="text;strokeColor=none;align=center;fillColor=none;html=1;verticalAlign=middle;whiteSpace=wrap;rounded=0;fontSize=24;fontColor=#007FFF;" vertex="1" parent="1">
          <mxGeometry x="995" y="1300.3400000000001" width="60" height="30" as="geometry" />
        </mxCell>
        <mxCell id="a6yZp-BWBQQfalIG9g2c-21" value="&lt;font face=&quot;Verdana&quot; color=&quot;#0d0c0c&quot;&gt;&lt;span style=&quot;font-size: 30px;&quot;&gt;&lt;b&gt;Logstash&lt;/b&gt;&lt;/span&gt;&lt;/font&gt;" style="text;strokeColor=none;align=center;fillColor=none;html=1;verticalAlign=middle;whiteSpace=wrap;rounded=0;fontSize=24;fontColor=#007FFF;" vertex="1" parent="1">
          <mxGeometry x="510" y="1310.3400000000001" width="60" height="30" as="geometry" />
        </mxCell>
        <mxCell id="a6yZp-BWBQQfalIG9g2c-22" value="&lt;font face=&quot;Verdana&quot; color=&quot;#0d0c0c&quot;&gt;&lt;span style=&quot;font-size: 30px;&quot;&gt;&lt;b&gt;Beats&lt;/b&gt;&lt;/span&gt;&lt;/font&gt;" style="text;strokeColor=none;align=center;fillColor=none;html=1;verticalAlign=middle;whiteSpace=wrap;rounded=0;fontSize=24;fontColor=#007FFF;" vertex="1" parent="1">
          <mxGeometry x="510" y="1280.3400000000001" width="60" height="30" as="geometry" />
        </mxCell>
        <mxCell id="a6yZp-BWBQQfalIG9g2c-23" value="&lt;b style=&quot;border-color: var(--border-color); color: rgb(0, 0, 0); font-family: Verdana;&quot;&gt;&lt;font style=&quot;border-color: var(--border-color);&quot; color=&quot;#007fff&quot;&gt;- Logs&lt;br style=&quot;border-color: var(--border-color);&quot;&gt;- Merics&lt;br style=&quot;border-color: var(--border-color);&quot;&gt;&lt;div style=&quot;border-color: var(--border-color);&quot;&gt;&lt;b style=&quot;border-color: var(--border-color); background-color: initial;&quot;&gt;- Packets&lt;/b&gt;&lt;/div&gt;&lt;/font&gt;&lt;/b&gt;" style="text;strokeColor=none;align=left;fillColor=none;html=1;verticalAlign=middle;whiteSpace=wrap;rounded=0;fontSize=24;fontColor=#007FFF;" vertex="1" parent="1">
          <mxGeometry x="410" y="1610" width="180" height="30" as="geometry" />
        </mxCell>
        <mxCell id="a6yZp-BWBQQfalIG9g2c-24" value="&lt;b style=&quot;border-color: var(--border-color); color: rgb(0, 0, 0); font-family: Verdana;&quot;&gt;&lt;font style=&quot;border-color: var(--border-color);&quot; color=&quot;#007fff&quot;&gt;- Base&lt;br&gt;&lt;/font&gt;&lt;/b&gt;" style="text;strokeColor=none;align=left;fillColor=none;html=1;verticalAlign=middle;whiteSpace=wrap;rounded=0;fontSize=24;fontColor=#007FFF;" vertex="1" parent="1">
          <mxGeometry x="875" y="1550.3400000000001" width="180" height="30" as="geometry" />
        </mxCell>
        <mxCell id="a6yZp-BWBQQfalIG9g2c-25" value="" style="verticalLabelPosition=bottom;sketch=0;aspect=fixed;html=1;verticalAlign=top;strokeColor=none;align=center;outlineConnect=0;shape=mxgraph.citrix.database_server;fontSize=24;fontColor=#007FFF;" vertex="1" parent="1">
          <mxGeometry x="935" y="1352.1" width="205.01" height="230.64" as="geometry" />
        </mxCell>
        <mxCell id="a6yZp-BWBQQfalIG9g2c-27" value="&lt;font face=&quot;Verdana&quot; color=&quot;#0d0c0c&quot;&gt;&lt;span style=&quot;font-size: 30px;&quot;&gt;&lt;b&gt;Kibana&lt;/b&gt;&lt;/span&gt;&lt;/font&gt;" style="text;strokeColor=none;align=center;fillColor=none;html=1;verticalAlign=middle;whiteSpace=wrap;rounded=0;fontSize=24;fontColor=#007FFF;" vertex="1" parent="1">
          <mxGeometry x="1420" y="1280.3400000000001" width="60" height="30" as="geometry" />
        </mxCell>
        <mxCell id="a6yZp-BWBQQfalIG9g2c-28" value="" style="shape=ext;double=1;rounded=1;whiteSpace=wrap;html=1;fontSize=30;fontColor=#0d0c0c;" vertex="1" parent="1">
          <mxGeometry x="-80" y="1297.42" width="310" height="822.58" as="geometry" />
        </mxCell>
        <mxCell id="a6yZp-BWBQQfalIG9g2c-29" value="" style="verticalLabelPosition=bottom;sketch=0;aspect=fixed;html=1;verticalAlign=top;strokeColor=none;align=center;outlineConnect=0;shape=mxgraph.citrix.web_server;fontSize=24;fontColor=#007FFF;" vertex="1" parent="1">
          <mxGeometry x="-30" y="1371.1100000000001" width="199" height="234.12" as="geometry" />
        </mxCell>
        <mxCell id="a6yZp-BWBQQfalIG9g2c-30" value="&lt;font face=&quot;Verdana&quot; color=&quot;#0d0c0c&quot;&gt;&lt;span style=&quot;font-size: 30px;&quot;&gt;&lt;b&gt;AplicaciÃ³n&lt;/b&gt;&lt;/span&gt;&lt;b style=&quot;font-size: 30px;&quot;&gt;&amp;nbsp;Web&lt;/b&gt;&lt;/font&gt;" style="text;strokeColor=none;align=center;fillColor=none;html=1;verticalAlign=middle;whiteSpace=wrap;rounded=0;fontSize=24;fontColor=#007FFF;" vertex="1" parent="1">
          <mxGeometry x="45" y="1330.3400000000001" width="60" height="30" as="geometry" />
        </mxCell>
        <mxCell id="a6yZp-BWBQQfalIG9g2c-31" value="&lt;font size=&quot;1&quot; face=&quot;Verdana&quot; color=&quot;#0d0c0c&quot;&gt;&lt;b style=&quot;font-size: 48px;&quot;&gt;Sitio Secundario&lt;/b&gt;&lt;/font&gt;" style="text;strokeColor=none;align=center;fillColor=none;html=1;verticalAlign=middle;whiteSpace=wrap;rounded=0;fontSize=24;fontColor=#007FFF;" vertex="1" parent="1">
          <mxGeometry x="580" y="1130.34" width="620" height="30" as="geometry" />
        </mxCell>
        <mxCell id="a6yZp-BWBQQfalIG9g2c-32" value="&lt;font size=&quot;1&quot; face=&quot;Verdana&quot; color=&quot;#0d0c0c&quot;&gt;&lt;b style=&quot;font-size: 40px;&quot;&gt;Stack ELK&lt;br&gt;&lt;/b&gt;&lt;/font&gt;" style="text;strokeColor=none;align=center;fillColor=none;html=1;verticalAlign=middle;whiteSpace=wrap;rounded=0;fontSize=24;fontColor=#007FFF;" vertex="1" parent="1">
          <mxGeometry x="780" y="1200.3400000000001" width="420" height="30" as="geometry" />
        </mxCell>
        <mxCell id="a6yZp-BWBQQfalIG9g2c-37" value="&lt;b style=&quot;border-color: var(--border-color); color: rgb(0, 0, 0); font-family: Verdana;&quot;&gt;&lt;font style=&quot;border-color: var(--border-color);&quot; color=&quot;#007fff&quot;&gt;- Filebeat&lt;br&gt;&lt;/font&gt;&lt;/b&gt;" style="text;strokeColor=none;align=left;fillColor=none;html=1;verticalAlign=middle;whiteSpace=wrap;rounded=0;fontSize=24;fontColor=#007FFF;" vertex="1" parent="1">
          <mxGeometry x="-65" y="1600.3400000000001" width="180" height="30" as="geometry" />
        </mxCell>
        <mxCell id="a6yZp-BWBQQfalIG9g2c-38" value="" style="verticalLabelPosition=bottom;sketch=0;aspect=fixed;html=1;verticalAlign=top;strokeColor=none;align=center;outlineConnect=0;shape=mxgraph.citrix.web_server;fontSize=24;fontColor=#007FFF;" vertex="1" parent="1">
          <mxGeometry x="-45" y="1740.7700000000002" width="199" height="234.12" as="geometry" />
        </mxCell>
        <mxCell id="a6yZp-BWBQQfalIG9g2c-39" value="&lt;font face=&quot;Verdana&quot; color=&quot;#0d0c0c&quot;&gt;&lt;span style=&quot;font-size: 30px;&quot;&gt;&lt;b&gt;AplicaciÃ³n&lt;/b&gt;&lt;/span&gt;&lt;b style=&quot;font-size: 30px;&quot;&gt;&amp;nbsp;Web&lt;/b&gt;&lt;/font&gt;" style="text;strokeColor=none;align=center;fillColor=none;html=1;verticalAlign=middle;whiteSpace=wrap;rounded=0;fontSize=24;fontColor=#007FFF;" vertex="1" parent="1">
          <mxGeometry x="30" y="1700.0000000000002" width="60" height="30" as="geometry" />
        </mxCell>
        <mxCell id="a6yZp-BWBQQfalIG9g2c-40" value="&lt;b style=&quot;border-color: var(--border-color); color: rgb(0, 0, 0); font-family: Verdana;&quot;&gt;&lt;font style=&quot;border-color: var(--border-color);&quot; color=&quot;#007fff&quot;&gt;- Filebeat&lt;br&gt;&lt;/font&gt;&lt;/b&gt;" style="text;strokeColor=none;align=left;fillColor=none;html=1;verticalAlign=middle;whiteSpace=wrap;rounded=0;fontSize=24;fontColor=#007FFF;" vertex="1" parent="1">
          <mxGeometry x="-80" y="1970.0000000000002" width="180" height="30" as="geometry" />
        </mxCell>
        <mxCell id="a6yZp-BWBQQfalIG9g2c-44" value="" style="verticalLabelPosition=bottom;aspect=fixed;html=1;verticalAlign=top;strokeColor=none;shape=mxgraph.citrix.file_server;rounded=0;shadow=0;comic=0;fontFamily=Verdana;" vertex="1" parent="1">
          <mxGeometry x="478.73" y="1776.0000000000002" width="178.35" height="243.66" as="geometry" />
        </mxCell>
        <mxCell id="a6yZp-BWBQQfalIG9g2c-45" value="&lt;font face=&quot;Verdana&quot; color=&quot;#0d0c0c&quot;&gt;&lt;span style=&quot;font-size: 30px;&quot;&gt;&lt;b&gt;Beats&lt;/b&gt;&lt;/span&gt;&lt;/font&gt;" style="text;strokeColor=none;align=center;fillColor=none;html=1;verticalAlign=middle;whiteSpace=wrap;rounded=0;fontSize=24;fontColor=#007FFF;" vertex="1" parent="1">
          <mxGeometry x="490" y="1700.0000000000002" width="60" height="30" as="geometry" />
        </mxCell>
        <mxCell id="a6yZp-BWBQQfalIG9g2c-46" value="&lt;b style=&quot;border-color: var(--border-color); color: rgb(0, 0, 0); font-family: Verdana;&quot;&gt;&lt;font style=&quot;border-color: var(--border-color);&quot; color=&quot;#007fff&quot;&gt;- Logs&lt;br style=&quot;border-color: var(--border-color);&quot;&gt;- Merics&lt;br style=&quot;border-color: var(--border-color);&quot;&gt;&lt;div style=&quot;border-color: var(--border-color);&quot;&gt;&lt;b style=&quot;border-color: var(--border-color); background-color: initial;&quot;&gt;- Packets&lt;/b&gt;&lt;/div&gt;&lt;/font&gt;&lt;/b&gt;" style="text;strokeColor=none;align=left;fillColor=none;html=1;verticalAlign=middle;whiteSpace=wrap;rounded=0;fontSize=24;fontColor=#007FFF;" vertex="1" parent="1">
          <mxGeometry x="422.91" y="2019.66" width="180" height="30" as="geometry" />
        </mxCell>
        <mxCell id="a6yZp-BWBQQfalIG9g2c-47" value="&lt;font face=&quot;Verdana&quot; color=&quot;#0d0c0c&quot;&gt;&lt;span style=&quot;font-size: 30px;&quot;&gt;&lt;b&gt;Logstash&lt;/b&gt;&lt;/span&gt;&lt;/font&gt;" style="text;strokeColor=none;align=center;fillColor=none;html=1;verticalAlign=middle;whiteSpace=wrap;rounded=0;fontSize=24;fontColor=#007FFF;" vertex="1" parent="1">
          <mxGeometry x="500" y="1740.7700000000002" width="60" height="30" as="geometry" />
        </mxCell>
        <mxCell id="a6yZp-BWBQQfalIG9g2c-48" value="&lt;b style=&quot;border-color: var(--border-color); color: rgb(13, 12, 12); font-family: Verdana; font-size: 30px;&quot;&gt;Elasticsearch&lt;/b&gt;" style="text;strokeColor=none;align=center;fillColor=none;html=1;verticalAlign=middle;whiteSpace=wrap;rounded=0;fontSize=24;fontColor=#007FFF;" vertex="1" parent="1">
          <mxGeometry x="972.49" y="1730.0000000000002" width="60" height="30" as="geometry" />
        </mxCell>
        <mxCell id="a6yZp-BWBQQfalIG9g2c-49" value="&lt;b style=&quot;border-color: var(--border-color); color: rgb(0, 0, 0); font-family: Verdana;&quot;&gt;&lt;font style=&quot;border-color: var(--border-color);&quot; color=&quot;#007fff&quot;&gt;- Base&lt;br&gt;&lt;/font&gt;&lt;/b&gt;" style="text;strokeColor=none;align=left;fillColor=none;html=1;verticalAlign=middle;whiteSpace=wrap;rounded=0;fontSize=24;fontColor=#007FFF;" vertex="1" parent="1">
          <mxGeometry x="852.49" y="1980.0000000000002" width="180" height="30" as="geometry" />
        </mxCell>
        <mxCell id="a6yZp-BWBQQfalIG9g2c-50" value="" style="verticalLabelPosition=bottom;sketch=0;aspect=fixed;html=1;verticalAlign=top;strokeColor=none;align=center;outlineConnect=0;shape=mxgraph.citrix.database_server;fontSize=24;fontColor=#007FFF;" vertex="1" parent="1">
          <mxGeometry x="912.49" y="1781.76" width="205.01" height="230.64" as="geometry" />
        </mxCell>
        <mxCell id="a6yZp-BWBQQfalIG9g2c-51" value="" style="verticalLabelPosition=bottom;sketch=0;aspect=fixed;html=1;verticalAlign=top;strokeColor=none;align=center;outlineConnect=0;shape=mxgraph.citrix.command_center;fontSize=24;fontColor=#007FFF;" vertex="1" parent="1">
          <mxGeometry x="1452" y="1555.0100000000002" width="198.5" height="252.4" as="geometry" />
        </mxCell>
        <mxCell id="a6yZp-BWBQQfalIG9g2c-52" value="&lt;font face=&quot;Verdana&quot; color=&quot;#0d0c0c&quot;&gt;&lt;span style=&quot;font-size: 30px;&quot;&gt;&lt;b&gt;Kibana&lt;/b&gt;&lt;/span&gt;&lt;/font&gt;" style="text;strokeColor=none;align=center;fillColor=none;html=1;verticalAlign=middle;whiteSpace=wrap;rounded=0;fontSize=24;fontColor=#007FFF;" vertex="1" parent="1">
          <mxGeometry x="1510" y="1490.0000000000002" width="60" height="30" as="geometry" />
        </mxCell>
        <mxCell id="a6yZp-BWBQQfalIG9g2c-55" value="" style="shape=curlyBracket;whiteSpace=wrap;html=1;rounded=1;flipH=1;labelPosition=right;verticalLabelPosition=middle;align=left;verticalAlign=middle;" vertex="1" parent="1">
          <mxGeometry x="657" y="1463" width="353" height="467" as="geometry" />
        </mxCell>
        <mxCell id="a6yZp-BWBQQfalIG9g2c-56" value="" style="line;strokeWidth=2;html=1;" vertex="1" parent="1">
          <mxGeometry x="1050" y="1260" width="160" height="10" as="geometry" />
        </mxCell>
        <mxCell id="a6yZp-BWBQQfalIG9g2c-57" value="" style="line;strokeWidth=2;direction=south;html=1;" vertex="1" parent="1">
          <mxGeometry x="1005" y="1570" width="10" height="210" as="geometry" />
        </mxCell>
        <mxCell id="a6yZp-BWBQQfalIG9g2c-58" value="" style="shape=curlyBracket;whiteSpace=wrap;html=1;rounded=1;flipH=1;labelPosition=right;verticalLabelPosition=middle;align=left;verticalAlign=middle;" vertex="1" parent="1">
          <mxGeometry x="1100" y="1441.5" width="353" height="467" as="geometry" />
        </mxCell>
        <mxCell id="a6yZp-BWBQQfalIG9g2c-60" value="" style="shape=curlyBracket;whiteSpace=wrap;html=1;rounded=1;flipH=1;labelPosition=right;verticalLabelPosition=middle;align=left;verticalAlign=middle;" vertex="1" parent="1">
          <mxGeometry x="170" y="1470" width="230" height="440" as="geometry" />
        </mxCell>
        <mxCell id="a6yZp-BWBQQfalIG9g2c-61" value="" style="rounded=1;whiteSpace=wrap;html=1;" vertex="1" parent="1">
          <mxGeometry x="1070" y="640" width="120" height="60" as="geometry" />
        </mxCell>
        <mxCell id="a6yZp-BWBQQfalIG9g2c-62" value="" style="rounded=1;whiteSpace=wrap;html=1;" vertex="1" parent="1">
          <mxGeometry x="370" y="922" width="1260" height="60" as="geometry" />
        </mxCell>
        <mxCell id="a6yZp-BWBQQfalIG9g2c-63" value="&lt;font face=&quot;Verdana&quot; color=&quot;#0d0c0c&quot;&gt;&lt;span style=&quot;font-size: 30px;&quot;&gt;&lt;b&gt;Ubuntu 20.04&lt;/b&gt;&lt;/span&gt;&lt;/font&gt;" style="text;strokeColor=none;align=center;fillColor=none;html=1;verticalAlign=middle;whiteSpace=wrap;rounded=0;fontSize=24;fontColor=#007FFF;" vertex="1" parent="1">
          <mxGeometry x="770" y="937" width="410" height="30" as="geometry" />
        </mxCell>
        <mxCell id="a6yZp-BWBQQfalIG9g2c-64" value="" style="rounded=1;whiteSpace=wrap;html=1;" vertex="1" parent="1">
          <mxGeometry x="420" y="2110" width="1240" height="60" as="geometry" />
        </mxCell>
        <mxCell id="a6yZp-BWBQQfalIG9g2c-65" value="&lt;font face=&quot;Verdana&quot; color=&quot;#0d0c0c&quot;&gt;&lt;span style=&quot;font-size: 30px;&quot;&gt;&lt;b&gt;Ubuntu 20.04&lt;/b&gt;&lt;/span&gt;&lt;/font&gt;" style="text;strokeColor=none;align=center;fillColor=none;html=1;verticalAlign=middle;whiteSpace=wrap;rounded=0;fontSize=24;fontColor=#007FFF;" vertex="1" parent="1">
          <mxGeometry x="810" y="2125" width="410" height="30" as="geometry" />
        </mxCell>
        <mxCell id="a6yZp-BWBQQfalIG9g2c-67" value="" style="rounded=1;whiteSpace=wrap;html=1;" vertex="1" parent="1">
          <mxGeometry x="-120" y="877" width="320" height="60" as="geometry" />
        </mxCell>
        <mxCell id="a6yZp-BWBQQfalIG9g2c-68" value="&lt;font face=&quot;Verdana&quot; color=&quot;#0d0c0c&quot;&gt;&lt;span style=&quot;font-size: 30px;&quot;&gt;&lt;b&gt;Ubuntu 22.04&lt;/b&gt;&lt;/span&gt;&lt;/font&gt;" style="text;strokeColor=none;align=center;fillColor=none;html=1;verticalAlign=middle;whiteSpace=wrap;rounded=0;fontSize=24;fontColor=#007FFF;" vertex="1" parent="1">
          <mxGeometry x="-165" y="892" width="410" height="30" as="geometry" />
        </mxCell>
        <mxCell id="a6yZp-BWBQQfalIG9g2c-69" value="" style="rounded=1;whiteSpace=wrap;html=1;" vertex="1" parent="1">
          <mxGeometry x="-90.5" y="2120" width="320" height="60" as="geometry" />
        </mxCell>
        <mxCell id="a6yZp-BWBQQfalIG9g2c-70" value="&lt;font face=&quot;Verdana&quot; color=&quot;#0d0c0c&quot;&gt;&lt;span style=&quot;font-size: 30px;&quot;&gt;&lt;b&gt;Ubuntu 22.04&lt;/b&gt;&lt;/span&gt;&lt;/font&gt;" style="text;strokeColor=none;align=center;fillColor=none;html=1;verticalAlign=middle;whiteSpace=wrap;rounded=0;fontSize=24;fontColor=#007FFF;" vertex="1" parent="1">
          <mxGeometry x="-135.5" y="2135" width="410" height="30" as="geometry" />
        </mxCell>
      </root>
    </mxGraphModel>
  </diagram>
</mxfile>
